<svg xmlns="http://www.w3.org/2000/svg" version="1.1" xmlns:xlink="http://www.w3.org/1999/xlink" xmlns:svgjs="http://svgjs.com/svgjs" width="280" height="192"><svg width="280" height="192" viewBox="0 0 280 192" fill="none" xmlns="http://www.w3.org/2000/svg">
<path d="M102.222 326.558C207.332 284.344 242.925 162.32 212.524 86.1925C190.527 31.1083 127.035 28.5987 75.7778 49.1848C-39.0641 95.3079 -61.9595 220.85 -34.5243 289.551C-12.7739 344.016 51.6139 346.884 102.222 326.558Z" fill="#F8EDED"></path>
<path fill-rule="evenodd" clip-rule="evenodd" d="M114.703 63.4657C115.169 62.7955 118.932 53.7103 122.193 46.4828C132.008 24.5901 144.887 27.2426 136.96 54.3804L128.07 85.6048" fill="#AF709E"></path>
<path fill-rule="evenodd" clip-rule="evenodd" d="M149.767 104.687C154.488 114.287 151.66 120.209 146.18 122.734L108.041 140.895C102.508 143.444 98.2711 139.542 95.7114 133.956L54.6082 44.2554C52.0485 38.6692 54.4502 32.0979 59.9834 29.5481L95.6832 13.0969C101.216 10.5471 107.753 12.9996 110.313 18.5857L150.119 105.175L149.767 104.687Z" fill="#842227"></path>
<path fill-rule="evenodd" clip-rule="evenodd" d="M142.443 88.2845L149.63 103.969C152.067 109.286 149.751 115.623 144.43 118.075L107.666 135.016C102.346 137.468 96.0676 135.157 93.6063 129.785L56.515 48.8402C54.0783 43.5227 56.3942 37.186 61.7146 34.7343L98.4785 17.7928C103.799 15.3411 110.077 17.6522 112.539 23.0235L127.577 55.842" fill="#C8002D"></path>
<path fill-rule="evenodd" clip-rule="evenodd" d="M109.31 140.572C105.563 124.799 91.1143 115.909 88.7577 113.157C82.9583 106.266 75.9914 89.375 73.072 84.4101C70.4272 79.904 65.2826 77.3956 62.7643 81.7438C60.5526 85.4953 67.6767 104.136 72.3043 119.438C74.4066 126.276 76.9357 138.967 74.3744 145.612L44.8551 196.772C29.2879 225.169 88.8236 239.594 103.214 217.521C117.604 195.447 123.145 186.98 141.959 132.228L109.31 140.572Z" fill="#AF709E"></path>
<path fill-rule="evenodd" clip-rule="evenodd" d="M109.211 140.353C110.484 144.256 112.747 147.507 112.094 155.223C111.089 166.811 122.478 179.713 125.956 177.46L150.247 120.923L109.211 140.353Z" fill="#77486F"></path>
<path fill-rule="evenodd" clip-rule="evenodd" d="M146.565 86.4507C149.67 84.369 162.257 81.0408 159.94 94.4043C158.799 100.915 151.458 119.911 151.458 119.911C151.458 119.911 146.784 130.522 138.994 123.508C132.586 117.678 138.805 103.688 138.805 103.688L146.565 86.4507Z" fill="#AF709E"></path>
<path fill-rule="evenodd" clip-rule="evenodd" d="M141.677 100.673C141.677 100.673 152.184 74.1028 148.519 68.6357C145.858 64.6574 139.822 63.0153 136.791 66.1036C132.27 70.7237 126.915 89.13 126.915 89.13L127.058 88.7389C125.612 93.1781 126.461 98.9673 128.367 101.862C130.827 105.543 135.721 106.8 141.947 100.418" fill="#AF709E"></path>
<path fill-rule="evenodd" clip-rule="evenodd" d="M147.041 85.1426C147.761 85.4069 148.13 86.2062 147.866 86.9277C146.23 91.4053 144.269 95.7588 142.723 98.9855C141.948 100.601 141.275 101.938 140.795 102.873C140.555 103.341 140.364 103.708 140.231 103.959C140.165 104.084 140.114 104.181 140.079 104.246L140.039 104.321L140.025 104.348C140.024 104.348 140.024 104.348 138.804 103.687L140.025 104.348C139.66 105.024 138.818 105.276 138.143 104.911C137.469 104.545 137.218 103.701 137.583 103.025C137.583 103.025 137.583 103.025 137.583 103.025L137.595 103.003L137.632 102.934C137.665 102.872 137.714 102.78 137.778 102.658C137.906 102.416 138.093 102.058 138.328 101.6C138.798 100.684 139.46 99.3692 140.221 97.7802C141.747 94.5981 143.666 90.3329 145.261 85.9705C145.524 85.2489 146.321 84.8783 147.041 85.1426Z" fill="#89567E"></path>
<path d="M106.968 67.7078C105.767 70.5199 99.9402 70.7226 93.9551 68.1633C87.9699 65.604 84.088 61.2495 85.2884 58.4374L86.5314 55.5252C86.7497 55.0139 87.3353 54.778 87.8452 54.996L90.8156 56.2662C91.3254 56.4842 91.56 57.0708 91.3417 57.5821L90.4782 59.6051C89.8092 61.1723 91.9221 63.6071 95.2503 65.0368C98.5785 66.4666 101.879 66.3336 102.548 64.7664L103.404 62.7466C103.622 62.2353 104.208 61.9994 104.718 62.2174L107.688 63.4876C108.198 63.7056 108.432 64.2922 108.214 64.8035L106.968 67.7078Z" fill="white"></path>
<path d="M105.793 67.2029C105.761 67.2616 105.59 67.5698 105.709 67.3839C105.835 67.1948 105.619 67.5031 105.589 67.5428C105.546 67.5968 105.462 67.7319 105.391 67.7606C105.517 67.7095 105.584 67.5999 105.462 67.6858C105.397 67.7304 105.346 67.7876 105.289 67.829C105.204 67.891 105.118 67.9531 105.03 68.0072C104.726 68.2125 105.212 67.9339 104.941 68.0613C104.694 68.1792 104.444 68.2892 104.176 68.3786C104.062 68.4153 103.937 68.4473 103.823 68.4841C104.169 68.3818 103.719 68.4985 103.633 68.5146C103.326 68.5739 103.021 68.6142 102.709 68.6387C102.397 68.6631 102.082 68.6796 101.764 68.6882C101.691 68.6899 101.607 68.6869 101.534 68.6887C101.775 68.6929 101.515 68.6871 101.45 68.6857C101.244 68.6766 101.046 68.6643 100.849 68.652C99.2637 68.5268 97.7089 68.1778 96.295 67.6984C95.4242 67.4051 94.5802 67.0642 93.7474 66.682C93.0032 66.3377 92.1561 65.8968 91.5591 65.53C90.8862 65.1109 90.2306 64.6665 89.6099 64.1712C89.3296 63.9528 89.0509 63.7154 88.7912 63.4796C88.674 63.3704 88.5489 63.2643 88.4365 63.144C88.4507 63.1566 88.1673 62.8844 88.3019 63.0142C88.4112 63.1266 88.1926 62.9018 88.1752 62.8812C87.7318 62.4157 87.3296 61.9152 86.9843 61.3733C86.9273 61.2766 86.7594 60.9946 86.902 61.2592C86.8354 61.1388 86.7689 61.0184 86.7072 60.8868C86.5899 60.6396 86.5123 60.3764 86.4109 60.1227C86.3666 60.0118 86.3159 60.023 86.43 60.2163C86.4094 60.1878 86.4014 60.099 86.3967 60.0641C86.3792 59.9515 86.3586 59.8309 86.3491 59.7151C86.3459 59.6612 86.3459 59.6152 86.3348 59.5645C86.3063 59.3091 86.3554 59.639 86.3253 59.6327C86.3063 59.6312 86.3538 59.29 86.3633 59.2677C86.3712 59.2185 86.3902 59.1741 86.3902 59.1281C86.4075 58.9646 86.3411 59.1662 86.3585 59.2328C86.349 59.1631 86.4297 59.0201 86.4614 58.9613C86.4946 58.8835 86.5231 58.8168 86.5563 58.739C86.8981 57.9387 87.24 57.1385 87.577 56.3493C87.596 56.3048 87.7068 56.1221 87.6957 56.0714C87.6957 56.0714 87.6039 56.1636 87.5659 56.2065C87.6324 56.1429 87.7527 56.122 87.5469 56.205C87.4108 56.2322 87.3839 56.2339 87.4804 56.2226C87.5691 56.2144 87.5501 56.2129 87.4266 56.2258C87.4028 56.1894 87.2968 56.1769 87.4773 56.2606C87.6356 56.3349 87.8098 56.4027 87.9649 56.469C88.3972 56.6538 88.8406 56.8432 89.2728 57.028C89.5721 57.1558 89.9173 57.3757 90.226 57.4353C90.226 57.4353 90.2846 57.4669 90.2925 57.4637C90.2561 57.4876 90.15 57.3371 90.1468 57.3292C90.2038 57.3798 90.2529 57.5257 90.1484 57.3101C90.1088 57.2341 90.1483 57.0801 90.1341 57.2975C90.1326 57.3165 90.1167 57.0929 90.1468 57.0991C90.1389 57.1023 90.1135 57.1769 90.1088 57.1881C89.9125 57.5708 89.767 57.9883 89.6008 58.3774C89.4774 58.6664 89.3349 58.9538 89.2337 59.2523C88.9932 59.9381 89.0281 60.6234 89.2388 61.3115C89.6365 62.6513 90.764 63.7706 91.8518 64.5838C93.3387 65.7056 95.0614 66.4746 96.8585 66.9468C99.2097 67.5639 102.666 67.7265 103.797 65.0621C103.978 64.6397 104.163 64.2062 104.343 63.7838C104.405 63.6393 104.478 63.4996 104.529 63.3503C104.529 63.3503 104.57 63.2693 104.567 63.2614C104.587 63.2899 104.44 63.4045 104.432 63.4076C104.562 63.2725 104.44 63.3584 104.354 63.4205C104.339 63.4269 104.312 63.4285 104.296 63.4349C104.446 63.4203 104.446 63.4203 104.296 63.4349C104.293 63.427 104.206 63.416 104.206 63.416C104.206 63.416 104.261 63.4397 104.272 63.4445C104.388 63.5267 104.56 63.5676 104.682 63.6197C105.103 63.7997 105.536 63.9844 105.957 64.1644C106.323 64.3207 106.676 64.4913 107.043 64.6286C107.184 64.6823 107.181 64.7203 107.054 64.5873C106.945 64.4749 107.141 64.8283 107.021 64.5271C106.989 64.4479 107.024 64.305 107.007 64.5145C107.008 64.4494 107.041 64.3256 107.01 64.3383C106.962 64.3575 106.915 64.5607 106.896 64.6051C106.81 64.8052 106.725 65.0053 106.644 65.1942C106.449 65.6499 106.26 66.0945 106.065 66.5503C105.991 66.7551 105.888 66.9806 105.793 67.2029C105.522 67.8364 105.833 68.6132 106.464 68.8832C107.096 69.1531 107.872 68.8406 108.142 68.207C108.456 67.4734 108.769 66.7398 109.082 66.0062C109.196 65.7395 109.326 65.4663 109.426 65.1869C109.828 64.0311 109.286 62.8138 108.189 62.2989C107.467 61.964 106.726 61.6736 105.994 61.361C105.739 61.2521 105.489 61.132 105.229 61.0342C104.102 60.605 102.842 61.0391 102.288 62.1365C101.945 62.8178 101.666 63.5466 101.378 64.2516C101.354 64.3072 101.232 64.4851 101.358 64.3151C101.492 64.1229 101.337 64.3326 101.316 64.3501C101.183 64.4773 101.422 64.3166 101.399 64.2801C101.402 64.288 101.111 64.525 101.096 64.5124C101.082 64.4997 101.415 64.3658 101.177 64.4614C101.098 64.4933 101.022 64.5332 100.943 64.565C100.887 64.5874 100.832 64.6097 100.773 64.6241C100.75 64.6337 100.465 64.7025 100.667 64.6576C100.886 64.6064 100.563 64.6721 100.547 64.6785C100.477 64.6882 100.411 64.7058 100.349 64.7122C100.175 64.7364 99.9976 64.7526 99.8171 64.7609C99.7443 64.7627 99.6635 64.7676 99.5907 64.7693C99.2187 64.7812 99.8298 64.7926 99.453 64.7696C99.0762 64.7466 98.7009 64.7045 98.3273 64.6434C97.9235 64.576 97.4279 64.4628 97.1588 64.3872C96.2515 64.1178 95.3918 63.7373 94.5526 63.2932C94.3325 63.1794 93.9588 62.9343 93.6548 62.7255C93.308 62.4787 92.9818 62.2144 92.673 61.9248C92.616 61.8741 92.5558 61.8155 92.5067 61.7617C92.6762 61.9327 92.5035 61.7538 92.4655 61.7047C92.361 61.5811 92.2486 61.4608 92.152 61.3341C92.0586 61.2153 91.9778 61.0822 91.8923 60.9602C91.8448 60.8873 91.7545 60.6844 91.8954 60.9681C91.8527 60.8841 91.8131 60.8081 91.7782 60.7209C91.7307 60.602 91.699 60.4767 91.6436 60.361C91.5755 60.2136 91.6595 60.6767 91.6658 60.4165C91.6657 60.3705 91.6483 60.3039 91.6515 60.2658C91.5992 59.928 91.6198 60.4626 91.6578 60.1897C91.6957 59.9167 91.5343 60.4326 91.6752 60.1182C91.8303 59.7705 91.9743 59.418 92.1215 59.0734C92.2591 58.7511 92.4158 58.4303 92.5392 58.0953C92.9776 56.9616 92.5388 55.7029 91.4446 55.1498C90.7289 54.7848 89.9563 54.5072 89.2137 54.1899C88.9366 54.0715 88.6642 53.9419 88.3824 53.8346C87.3817 53.4464 86.2181 53.7312 85.6024 54.6511C85.1133 55.3818 84.8459 56.2994 84.5041 57.0997C84.1386 57.9555 83.8126 58.7495 83.8254 59.7013C83.8463 60.972 84.4561 62.1987 85.1703 63.2269C86.0587 64.5069 87.2464 65.5928 88.4894 66.5183C91.5012 68.7649 95.1477 70.3232 98.8462 70.9772C100.369 71.2469 101.967 71.3578 103.499 71.1452C104.745 70.9745 106.078 70.5847 107.044 69.7355C107.527 69.3109 107.908 68.8167 108.176 68.2212C108.457 67.5924 108.136 66.8109 107.504 66.5409C106.828 66.252 106.074 66.574 105.793 67.2029Z" fill="white"></path>
<path d="M90.419 79.8291C94.4802 81.3675 98.9037 81.5361 103.074 80.2885C106.67 79.2166 109.911 77.046 112.321 74.1791C117.022 68.6041 118.207 60.5997 115.322 53.9125C112.476 47.2744 105.947 42.5983 98.7217 42.1785C95.0787 41.9624 91.3837 42.7426 88.1797 44.5213C84.9203 46.3222 82.2816 48.9405 80.4552 52.1886C76.6395 58.9436 77.3679 67.6405 82.1472 73.7115C82.8567 74.6127 83.6595 75.4487 84.5098 76.2195C84.3514 75.8232 84.1899 75.419 84.0315 75.0227C83.796 77.3997 83.5575 79.7687 83.322 82.1457C83.2857 82.4916 83.2541 82.8264 83.2178 83.1723C83.1103 84.2831 84.3279 85.0532 85.2524 84.377C87.1298 83.004 89.0151 81.6279 90.8925 80.2549C91.1568 80.0656 91.4259 79.8651 91.6903 79.6758C92.2523 79.2653 92.3455 78.418 91.9353 77.8747C91.5078 77.3108 90.7003 77.222 90.1384 77.6325C88.261 79.0055 86.3757 80.3816 84.4983 81.7546C84.2339 81.9439 83.9648 82.1444 83.7005 82.3337C84.375 82.7337 85.0606 83.1384 85.7351 83.5384C85.9642 81.4216 86.1744 79.3033 86.3814 77.177C86.4319 76.7057 86.4746 76.2376 86.5251 75.7664C86.5378 75.6601 86.5473 75.5458 86.5599 75.4395C86.5662 75.3633 86.5694 75.3252 86.5694 75.2332C86.5708 74.6161 86.1734 74.2885 85.7617 73.9023C84.0547 72.2988 82.65 70.1869 81.7598 67.9598C81.576 67.5001 81.4049 67.0261 81.2608 66.5505C81.1879 66.3222 81.1261 66.0987 81.0612 65.8672C81.0469 65.8085 81.0326 65.7498 81.0184 65.6912C81.0247 65.707 81.0707 65.891 81.0295 65.7419C80.9946 65.6087 80.9677 65.4723 80.936 65.3471C80.7284 64.3909 80.6031 63.4107 80.5507 62.4288C80.5427 62.202 80.5348 61.9751 80.5268 61.7483C80.5284 61.6372 80.5268 61.5183 80.5283 61.4072C80.5251 61.2613 80.5299 61.4342 80.5283 61.4532C80.5267 61.3802 80.533 61.3041 80.5394 61.2279C80.5551 60.7615 80.5946 60.2855 80.6452 59.8142C80.7495 58.8796 80.9329 57.959 81.1797 57.059C81.2145 56.9162 81.1702 57.0813 81.1687 57.1003C81.1845 57.0479 81.2003 56.9955 81.2161 56.9431C81.2478 56.8384 81.2794 56.7336 81.3158 56.6177C81.3886 56.3859 81.4724 56.1589 81.5531 55.924C81.7082 55.4842 81.8854 55.0539 82.0817 54.6252C82.2826 54.1853 82.5026 53.747 82.7368 53.3213C82.7907 53.226 82.8445 53.1307 82.903 53.0243C82.9711 52.8957 82.8856 53.0498 82.8809 53.0609C82.9078 53.0132 82.9347 52.9656 82.9695 52.9147C83.0977 52.7066 83.2259 52.4986 83.3572 52.2984C83.8811 51.5168 84.4588 50.7779 85.0904 50.0817C85.2455 49.918 85.4006 49.7543 85.5558 49.5906C85.7235 49.4125 85.4608 49.6748 85.6428 49.5095C85.7346 49.4173 85.8375 49.3298 85.9293 49.2376C86.2776 48.9133 86.6401 48.6016 87.02 48.3105C87.3967 48.0114 87.7909 47.733 88.1882 47.4625C88.3987 47.3224 88.6124 47.1903 88.8261 47.0582C88.9306 46.9977 89.0272 46.9404 89.1317 46.8799C88.9227 47.0009 89.2235 46.8337 89.2963 46.786C90.1733 46.313 91.0867 45.9081 92.0239 45.5857C92.4925 45.4246 92.9595 45.2824 93.4408 45.1529C93.2255 45.212 93.4835 45.1449 93.5579 45.1241C93.6751 45.0953 93.7843 45.0697 93.8967 45.052C94.1421 44.9992 94.3906 44.9542 94.6392 44.9093C95.578 44.7519 96.5374 44.669 97.4905 44.6623C97.5443 44.659 97.8388 44.66 97.72 44.6618C97.6013 44.6636 97.8958 44.6646 97.9528 44.6692C98.2156 44.683 98.4784 44.6967 98.7444 44.7184C99.2114 44.7602 99.6737 44.8132 100.142 44.8821C100.603 44.9541 101.062 45.0452 101.52 45.1553C101.632 45.1836 101.734 45.2072 101.846 45.2355C101.898 45.2513 102.175 45.3237 102.063 45.2953C101.95 45.267 102.231 45.3473 102.283 45.3631C102.41 45.4041 102.533 45.4371 102.652 45.4813C103.531 45.7714 104.4 46.1297 105.222 46.5532C105.419 46.6575 105.617 46.7618 105.815 46.8661C105.91 46.9198 106.005 46.9736 106.111 47.0321C105.91 46.9198 106.199 47.089 106.26 47.1285C106.661 47.372 107.041 47.633 107.419 47.913C107.809 48.1978 108.197 48.5016 108.564 48.8229C108.735 48.9748 108.903 49.1188 109.066 49.274C109.152 49.3499 109.229 49.4291 109.315 49.5051C109.357 49.543 109.392 49.5842 109.435 49.6222C109.452 49.6428 109.619 49.8059 109.516 49.7093C109.435 49.6222 109.643 49.8423 109.674 49.8755C109.752 49.9547 109.833 50.0418 109.902 50.1241C110.067 50.3062 110.235 50.4963 110.392 50.6816C110.694 51.0474 110.992 51.4244 111.269 51.8188C111.546 52.2133 111.81 52.622 112.059 53.0372C112.096 53.1053 112.236 53.343 112.119 53.1417C112.179 53.2463 112.229 53.3462 112.289 53.4507C112.408 53.6789 112.526 53.9071 112.637 54.1385C113.077 55.0562 113.439 56.0057 113.729 56.9839C113.765 57.0981 113.79 57.2075 113.827 57.3216C113.851 57.4041 113.909 57.6657 113.858 57.4469C113.919 57.6895 113.974 57.9432 114.026 58.189C114.125 58.6647 114.196 59.1421 114.248 59.6179C114.301 60.0938 114.342 60.5648 114.359 61.0455C114.367 61.2723 114.367 61.5024 114.375 61.7292C114.379 61.7832 114.374 61.8403 114.372 61.9053C114.374 61.8863 114.377 61.7102 114.372 61.8593C114.369 61.9894 114.366 62.1195 114.355 62.2528C114.308 63.1921 114.195 64.1299 114.001 65.0456C113.96 65.2647 113.911 65.4869 113.851 65.7043C113.822 65.817 113.798 65.9186 113.77 66.0313C113.754 66.0837 113.738 66.1361 113.726 66.1964C113.672 66.3837 113.783 66.017 113.721 66.2075C113.586 66.6758 113.43 67.1346 113.254 67.5918C112.922 68.4619 112.523 69.3035 112.061 70.1247C112.034 70.1723 112.007 70.22 111.98 70.2676C111.993 70.2533 112.078 70.0992 112.002 70.2311C111.941 70.3296 111.887 70.4249 111.822 70.5154C111.694 70.7235 111.562 70.9237 111.423 71.127C111.157 71.5194 110.882 71.888 110.587 72.2551C110.293 72.6222 109.984 72.9766 109.661 73.3184C109.585 73.4042 109.506 73.4821 109.427 73.56C109.377 73.6172 109.182 73.7969 109.343 73.649C109.164 73.8223 108.982 73.9876 108.8 74.153C108.069 74.8065 107.289 75.4062 106.469 75.9299C106.271 76.0556 106.07 76.1734 105.872 76.2992C105.658 76.4313 105.987 76.2434 105.759 76.3628C105.639 76.4297 105.519 76.4966 105.395 76.5556C104.955 76.7881 104.506 76.9968 104.05 77.1897C103.523 77.4113 102.989 77.6171 102.451 77.7879C102.183 77.8773 101.909 77.9509 101.647 78.0292C101.498 78.0707 101.615 78.0419 101.639 78.0323C101.572 78.0499 101.506 78.0675 101.436 78.0772C101.276 78.114 101.124 78.1476 100.964 78.1845C98.6672 78.6683 96.6376 78.6947 94.3688 78.2837C93.8447 78.1912 93.327 78.0685 92.8108 77.9268C92.6684 77.8922 92.7776 77.9126 92.8108 77.9268C92.7475 77.9063 92.6842 77.8858 92.6209 77.8653C92.4942 77.8244 92.3675 77.7834 92.2409 77.7424C91.9654 77.6509 91.6978 77.5563 91.427 77.4537C90.7779 77.2092 90.0291 77.4741 89.749 78.1299C89.4895 78.7681 89.7699 79.5846 90.419 79.8291Z" fill="white"></path>
</svg><style>@media (prefers-color-scheme: light) { :root { filter: none; } }
</style></svg>